<?xml version="1.0" standalone="no"?><!DOCTYPE svg PUBLIC "-//W3C//DTD SVG 1.1//EN" "http://www.w3.org/Graphics/SVG/1.1/DTD/svg11.dtd"><svg class="icon" width="200px" height="200.00px" viewBox="0 0 1024 1024" version="1.1" xmlns="http://www.w3.org/2000/svg"><path fill="#bfbfbf" d="M874.497076 148.77639C674.578801-48.817253 349.130447-48.817253 149.212172 148.77639-48.381471 348.694665-48.381471 674.143019 149.212172 874.061294c199.918275 199.918275 523.041998 199.918275 722.960273 0 199.918275-199.918275 199.918275-525.366629 2.324631-725.284904z m-34.869467 690.415437c-181.321226 181.321226-476.549376 181.321226-657.870601 0S0.435782 364.967083 184.081639 183.645857C365.402865 0 658.306383 0 839.627609 183.645857c183.645857 181.321226 183.645857 474.224745 0 655.54597zM795.459618 302.202043L442.115691 678.792281 228.24963 464.92622c-9.298524-9.298524-23.246311-9.298524-32.544836 0-9.298524 9.298524-9.298524 23.246311 0 32.544836l230.138479 230.138479c9.298524 9.298524 23.246311 9.298524 32.544836 0l369.616345-392.862656c9.298524-9.298524 9.298524-23.246311 0-32.544836-9.298524-9.298524-23.246311-9.298524-32.544836 0z"  /></svg>